<svg width="21" height="21" viewBox="0 0 21 21" fill="none" xmlns="http://www.w3.org/2000/svg">
<path d="M10.0316 20.4098C9.893 20.3515 9.77472 20.2535 9.6917 20.1281C9.60868 20.0027 9.56463 19.8556 9.5651 19.7052V15.8969H1.94839C1.54438 15.8969 1.15691 15.7364 0.871225 15.4507C0.585543 15.165 0.425049 14.7775 0.425049 14.3735V6.75681C0.425049 6.35279 0.585543 5.96532 0.871225 5.67964C1.15691 5.39396 1.54438 5.23347 1.94839 5.23347H9.5651V1.42511C9.56463 1.27474 9.60868 1.12759 9.6917 1.00221C9.77472 0.876833 9.893 0.778834 10.0316 0.720565C10.1723 0.66569 10.3257 0.651769 10.4739 0.680412C10.6222 0.709055 10.7593 0.779092 10.8695 0.88242L20.0095 10.0225C20.1525 10.1669 20.2328 10.3619 20.2328 10.5652C20.2328 10.7684 20.1525 10.9634 20.0095 11.1079L10.8695 20.2479C10.7593 20.3512 10.6222 20.4213 10.4739 20.4499C10.3257 20.4786 10.1723 20.4646 10.0316 20.4098V20.4098Z" fill="white"/>
</svg>
