<svg width="30" height="26" viewBox="0 0 30 26" fill="none" xmlns="http://www.w3.org/2000/svg">
<path d="M29.3283 9.58355C29.3377 11.9413 28.412 14.2067 26.7541 15.8832C25.0962 17.5597 22.8412 18.5105 20.4835 18.5273L9.36565 18.5891L9.39657 24.148C9.39848 24.3675 9.33537 24.5826 9.21521 24.7663C9.09504 24.95 8.9232 25.094 8.72132 25.1802C8.58449 25.2354 8.43852 25.2645 8.29097 25.266C7.99574 25.2664 7.7116 25.1536 7.49705 24.9507L0.789257 18.3172C0.579313 18.1075 0.460611 17.8235 0.458961 17.5268C0.457311 17.2301 0.572846 16.9448 0.780446 16.7329L7.41404 10.0251C7.57395 9.87336 7.77354 9.77002 7.98974 9.727C8.20593 9.68399 8.42988 9.70307 8.63568 9.78202C8.8385 9.86595 9.01194 10.008 9.13414 10.1904C9.25634 10.3727 9.32183 10.5871 9.32237 10.8066L9.35329 16.3655L20.4711 16.3037C22.2403 16.2939 23.9331 15.5816 25.1771 14.3237C26.4212 13.0657 27.1145 11.3651 27.1047 9.59592C27.0949 7.82674 26.3826 6.13393 25.1247 4.88989C23.8667 3.64585 22.1661 2.95249 20.3969 2.96233L8.1673 3.03034C7.87244 3.03198 7.589 2.91642 7.37935 2.70908C7.16969 2.50174 7.05098 2.21961 7.04934 1.92474C7.0477 1.62988 7.16326 1.34644 7.3706 1.13679C7.57794 0.927126 7.86007 0.80842 8.15494 0.80678L20.3845 0.738763C22.7423 0.729326 25.0077 1.65501 26.6842 3.31293C28.3606 4.97086 29.3115 7.2258 29.3283 9.58355V9.58355Z" fill="#ADB5BD"/>
</svg>
