<svg width="28" height="31" viewBox="0 0 28 31" fill="none" xmlns="http://www.w3.org/2000/svg">
<path d="M27.05 21.7359C26.2203 20.3016 25.2219 17.5734 25.2219 12.75V11.7516C25.2219 5.52188 20.2297 0.417188 14.0844 0.375H14C12.5245 0.376846 11.0638 0.6693 9.70127 1.23566C8.33877 1.80203 7.10117 2.63121 6.05912 3.67587C5.01707 4.72053 4.19099 5.96021 3.62804 7.32412C3.06508 8.68804 2.77629 10.1495 2.77814 11.625V12.75C2.77814 17.5734 1.7797 20.3016 0.950011 21.7359C0.749354 22.0778 0.642552 22.4665 0.640414 22.8629C0.638275 23.2592 0.740876 23.6491 0.937832 23.9931C1.13479 24.337 1.41911 24.6228 1.76203 24.8216C2.10494 25.0204 2.49428 25.125 2.89064 25.125H8.37501C8.37501 26.6168 8.96764 28.0476 10.0225 29.1025C11.0774 30.1574 12.5082 30.75 14 30.75C15.4919 30.75 16.9226 30.1574 17.9775 29.1025C19.0324 28.0476 19.625 26.6168 19.625 25.125H25.1094C25.5057 25.1275 25.8955 25.0247 26.239 24.827C26.5824 24.6293 26.8672 24.3439 27.0641 24C27.2593 23.6541 27.3607 23.2632 27.3582 22.8661C27.3558 22.469 27.2495 22.0794 27.05 21.7359V21.7359ZM14 28.5C13.106 28.4963 12.2498 28.1395 11.6176 27.5074C10.9855 26.8753 10.6287 26.019 10.625 25.125H17.375C17.3713 26.019 17.0145 26.8753 16.3824 27.5074C15.7503 28.1395 14.894 28.4963 14 28.5Z" fill="#ADB5BD"/>
</svg>
