<svg width="26" height="18" viewBox="0 0 26 18" fill="none" xmlns="http://www.w3.org/2000/svg">
<path d="M25.1164 8.675C25.0859 8.59375 24.2227 6.68438 22.3133 4.76484C19.7641 2.22578 16.5445 0.875 13 0.875C9.45546 0.875 6.23593 2.22578 3.68671 4.76484C1.77734 6.68438 0.914058 8.59375 0.883589 8.675C0.838245 8.77735 0.814819 8.88806 0.814819 9C0.814819 9.11194 0.838245 9.22265 0.883589 9.325C0.914058 9.40625 1.77734 11.3156 3.68671 13.2352C6.23593 15.7742 9.45546 17.125 13 17.125C16.5445 17.125 19.7641 15.7742 22.3133 13.2352C24.2227 11.3156 25.0859 9.40625 25.1164 9.325C25.1617 9.22265 25.1852 9.11194 25.1852 9C25.1852 8.88806 25.1617 8.77735 25.1164 8.675V8.675ZM13 5.34375C13.7231 5.34375 14.43 5.55819 15.0313 5.95994C15.6326 6.36169 16.1012 6.93272 16.3779 7.60081C16.6547 8.26891 16.7271 9.00406 16.586 9.7133C16.4449 10.4225 16.0967 11.074 15.5854 11.5854C15.074 12.0967 14.4225 12.4449 13.7133 12.586C13.0041 12.7271 12.2689 12.6547 11.6008 12.3779C10.9327 12.1012 10.3617 11.6326 9.95993 11.0313C9.55818 10.43 9.34375 9.72314 9.34375 9C9.34375 8.0303 9.72896 7.10032 10.4146 6.41464C11.1003 5.72896 12.0303 5.34375 13 5.34375V5.34375Z" fill="white"/>
</svg>
