<svg width="37" height="32" viewBox="0 0 37 32" fill="none" xmlns="http://www.w3.org/2000/svg">
<path d="M25.682 25.9314C26.448 25.5963 27.1875 25.2035 27.894 24.7563V30.1342C27.894 30.4275 27.7775 30.7088 27.5701 30.9162C27.3626 31.1236 27.0813 31.2402 26.788 31.2402C26.4947 31.2402 26.2134 31.1236 26.006 30.9162C25.7985 30.7088 25.682 30.4275 25.682 30.1342V25.9314ZM17.5115 9.70104C17.3776 9.96239 17.3503 10.2655 17.4354 10.5466C17.5205 10.8277 17.7113 11.0648 17.9678 11.2079L24.4378 14.6503L26.788 13.3923L19.0184 9.24482C18.7571 9.11086 18.454 9.08356 18.1729 9.16866C17.8918 9.25376 17.6547 9.44461 17.5115 9.70104ZM35.6083 9.24482L19.0184 0.396918C18.8553 0.315392 18.6755 0.272949 18.4931 0.272949C18.3107 0.272949 18.1309 0.315392 17.9678 0.396918L1.37794 9.24482C1.20207 9.34139 1.05538 9.48344 0.953202 9.65612C0.851026 9.82879 0.797119 10.0257 0.797119 10.2264C0.797119 10.427 0.851026 10.624 0.953202 10.7967C1.05538 10.9693 1.20207 11.1114 1.37794 11.2079L4.66825 12.9499V19.8347C4.66617 20.3094 4.82178 20.7713 5.11065 21.148C6.20281 22.6134 10.4056 27.3692 18.4931 27.3692C20.9642 27.3898 23.4125 26.8954 25.682 25.9176V15.3139L24.4378 14.6503L18.4931 17.8162L6.29958 11.3185L4.25351 10.2264L18.4931 2.63654L32.7327 10.2264L30.6866 11.3185L26.788 13.3923L27.3134 13.6688C27.5004 13.7768 27.6536 13.9347 27.7557 14.125C27.8477 14.2847 27.8954 14.466 27.894 14.6503V24.7563C29.4217 23.7952 30.7692 22.574 31.8756 21.148C32.1644 20.7713 32.32 20.3094 32.3179 19.8347V12.9499L35.6083 11.2079C35.7841 11.1114 35.9308 10.9693 36.033 10.7967C36.1352 10.624 36.1891 10.427 36.1891 10.2264C36.1891 10.0257 36.1352 9.82879 36.033 9.65612C35.9308 9.48344 35.7841 9.34139 35.6083 9.24482V9.24482Z" fill="#FFFFFF"/>
</svg>
