<svg width="36" height="29" viewBox="0 0 36 29" fill="none" xmlns="http://www.w3.org/2000/svg">
<path d="M32.5986 13.9485L18.8322 1.23644C18.3246 0.764603 17.6616 0.50293 16.9737 0.50293C16.2858 0.50293 15.6228 0.764603 15.1152 1.23644L1.3488 13.9485C1.06694 14.2105 0.841825 14.5293 0.687773 14.8845C0.53372 15.2397 0.454102 15.6236 0.45398 16.0118V32.116C0.442787 32.8214 0.687849 33.5062 1.1423 34.0394C1.40023 34.3375 1.71797 34.5759 2.07415 34.7388C2.43032 34.9017 2.81669 34.9852 3.20727 34.9837H11.4671C11.8322 34.9837 12.1824 34.8363 12.4406 34.574C12.6987 34.3116 12.8438 33.9558 12.8438 33.5848V25.1917C12.8438 24.8207 12.9888 24.4649 13.247 24.2026C13.5052 23.9402 13.8553 23.7929 14.2204 23.7929H19.727C20.0921 23.7929 20.4423 23.9402 20.7004 24.2026C20.9586 24.4649 21.1037 24.8207 21.1037 25.1917V33.5848C21.1037 33.9558 21.2487 34.3116 21.5069 34.574C21.765 34.8363 22.1152 34.9837 22.4803 34.9837H30.7402C31.1968 34.9878 31.647 34.8734 32.048 34.6514C32.4844 34.41 32.8488 34.0537 33.1031 33.6199C33.3574 33.1861 33.4922 32.6909 33.4935 32.186V16.0118C33.4933 15.6236 33.4137 15.2397 33.2597 14.8845C33.1056 14.5293 32.8805 14.2105 32.5986 13.9485V13.9485Z" fill="#033E8C"/>
</svg>
