<svg width="15" height="16" viewBox="0 0 15 16" fill="none" xmlns="http://www.w3.org/2000/svg">
<path d="M10.9722 7.37352C10.9722 8.20061 10.727 9.00913 10.2675 9.69683C9.80796 10.3845 9.15485 10.9205 8.39071 11.237C7.62658 11.5536 6.78575 11.6364 5.97455 11.475C5.16335 11.3137 4.41822 10.9154 3.83338 10.3305C3.24853 9.74569 2.85025 9.00056 2.68889 8.18936C2.52754 7.37816 2.61035 6.53733 2.92686 5.7732C3.24338 5.00906 3.77938 4.35595 4.46708 3.89644C5.15478 3.43693 5.9633 3.19167 6.79039 3.19167C7.89949 3.19167 8.96316 3.63226 9.7474 4.41651C10.5317 5.20075 10.9722 6.26442 10.9722 7.37352ZM14.708 15.2981C14.6039 15.4006 14.4638 15.4582 14.3177 15.4584C14.1697 15.4578 14.0275 15.4004 13.9204 15.2981L10.9095 12.2802C9.64143 13.3453 8.0111 13.8798 6.35855 13.7721C4.706 13.6644 3.15882 12.9229 2.0397 11.7022C0.920585 10.4815 0.315934 8.87586 0.351855 7.22019C0.387777 5.56453 1.0615 3.98665 2.23251 2.81564C3.40352 1.64463 4.9814 0.970907 6.63706 0.934985C8.29273 0.899063 9.89835 1.50371 11.119 2.62283C12.3397 3.74195 13.0813 5.28912 13.189 6.94168C13.2967 8.59423 12.7622 10.2246 11.6971 11.4926L14.708 14.5036C14.7607 14.5555 14.8025 14.6173 14.8311 14.6855C14.8597 14.7537 14.8744 14.8269 14.8744 14.9009C14.8744 14.9748 14.8597 15.048 14.8311 15.1162C14.8025 15.1844 14.7607 15.2462 14.708 15.2981V15.2981ZM6.79039 12.6705C7.83804 12.6705 8.86216 12.3599 9.73325 11.7778C10.6043 11.1958 11.2833 10.3685 11.6842 9.4006C12.0851 8.4327 12.19 7.36764 11.9856 6.34012C11.7812 5.31261 11.2767 4.36877 10.5359 3.62797C9.79514 2.88717 8.8513 2.38268 7.82379 2.17829C6.79627 1.9739 5.73121 2.0788 4.76331 2.47972C3.79541 2.88064 2.96813 3.55957 2.38609 4.43066C1.80404 5.30175 1.49338 6.32587 1.49338 7.37352C1.49522 8.77781 2.05389 10.1241 3.04688 11.117C4.03986 12.11 5.3861 12.6687 6.79039 12.6705V12.6705Z" fill="#ADB5BD"/>
</svg>
