<svg width="19" height="19" viewBox="0 0 19 19" fill="none" xmlns="http://www.w3.org/2000/svg">
<path d="M18 5.1907L13.8094 1.00007C13.6708 0.860045 13.5058 0.748888 13.3239 0.673027C13.1421 0.597165 12.947 0.558105 12.75 0.558105C12.553 0.558105 12.3579 0.597165 12.1761 0.673027C11.9942 0.748888 11.8292 0.860045 11.6906 1.00007L9.21563 3.4657L0.440626 12.2501C0.300843 12.3888 0.189933 12.5538 0.114303 12.7357C0.0386743 12.9175 -0.000174814 13.1125 5.91327e-07 13.3094V17.5001C5.91327e-07 17.8979 0.158036 18.2794 0.43934 18.5607C0.720645 18.842 1.10218 19.0001 1.5 19.0001H5.69063C5.88756 19.0002 6.08257 18.9614 6.26441 18.8858C6.44624 18.8101 6.61128 18.6992 6.75 18.5594L18 7.30945C18.2783 7.02705 18.4342 6.64652 18.4342 6.25007C18.4342 5.85362 18.2783 5.47309 18 5.1907V5.1907ZM1.80938 13.0001L10.5 4.30945L12.0656 5.87507L3.375 14.5657L1.80938 13.0001ZM1.5 14.8094L4.19063 17.5001H1.5V14.8094ZM6 17.1907L4.43438 15.6251L13.125 6.93445L14.6906 8.50007L6 17.1907Z" fill="white"/>
</svg>
