<svg width="48" height="48" viewBox="0 0 48 48" fill="none" xmlns="http://www.w3.org/2000/svg">
<path d="M47.5398 44.6875C44.1579 38.6606 38.7445 34.1371 32.3375 31.9844C35.4085 30.0952 37.795 27.2153 39.1304 23.7869C40.4657 20.3586 40.6761 16.5716 39.7292 13.0076C38.7822 9.44362 36.7303 6.29983 33.8887 4.0592C31.0471 1.81857 27.573 0.605042 24 0.605042C20.427 0.605042 16.9529 1.81857 14.1113 4.0592C11.2697 6.29983 9.2178 9.44362 8.27085 13.0076C7.3239 16.5716 7.53426 20.3586 8.86963 23.7869C10.205 27.2153 12.5915 30.0952 15.6625 31.9844C9.25553 34.1371 3.84214 38.6606 0.460159 44.6875C0.294115 44.97 0.206299 45.2943 0.206299 45.625C0.206299 45.9556 0.294115 46.2799 0.460159 46.5625C0.615076 46.8498 0.842073 47.0886 1.11721 47.2536C1.39235 47.4186 1.70543 47.5037 2.02344 47.5H45.9766C46.2946 47.5037 46.6077 47.4186 46.8828 47.2536C47.1579 47.0886 47.3849 46.8498 47.5398 46.5625C47.7059 46.2799 47.7937 45.9556 47.7937 45.625C47.7937 45.2943 47.7059 44.97 47.5398 44.6875V44.6875Z" fill="#033E8C"/>
</svg>
