<svg width="35" height="35" viewBox="0 0 35 35" fill="none" xmlns="http://www.w3.org/2000/svg">
<path d="M32.4707 14.2598C32.4368 14.1069 32.3704 13.9631 32.276 13.8381C32.1817 13.7131 32.0616 13.6098 31.9239 13.5352L28.67 11.7305C28.4968 11.375 28.3054 11.0332 28.0957 10.7051L28.1504 6.98636C28.1517 6.83038 28.1208 6.67582 28.0596 6.53233C27.9984 6.38883 27.9083 6.25949 27.795 6.15238C26.1748 4.68342 24.2588 3.57856 22.1758 2.91214C22.0262 2.8655 21.8685 2.85113 21.7129 2.86999C21.5574 2.88884 21.4076 2.94049 21.2735 3.02152L18.0879 4.93558C17.6914 4.92191 17.3086 4.92191 16.9121 4.93558L13.7266 3.02152C13.5925 2.94049 13.4427 2.88884 13.2872 2.86999C13.1316 2.85113 12.9738 2.8655 12.8243 2.91214C10.7386 3.57907 8.82172 4.68906 7.20511 6.16605C7.09073 6.26948 6.99983 6.3962 6.93852 6.5377C6.8772 6.67919 6.8469 6.83218 6.84964 6.98636L6.918 10.7051C6.69925 11.0332 6.50785 11.375 6.31644 11.7305L3.0762 13.5352C2.93676 13.6075 2.81528 13.7101 2.72065 13.8355C2.62602 13.9609 2.56065 14.1059 2.52933 14.2598C2.06444 16.3949 2.06444 18.6051 2.52933 20.7403C2.56329 20.8932 2.62969 21.037 2.72404 21.162C2.81839 21.287 2.93848 21.3903 3.0762 21.4649L6.33011 23.2696C6.50454 23.6233 6.70089 23.9657 6.918 24.295L6.84964 28.0137C6.84839 28.1697 6.87931 28.3242 6.94047 28.4677C7.00164 28.6112 7.09172 28.7406 7.20511 28.8477C8.82752 30.3136 10.7428 31.418 12.8243 32.0879C12.9738 32.1346 13.1316 32.1489 13.2872 32.1301C13.4427 32.1112 13.5925 32.0596 13.7266 31.9785L16.9121 30.0645H18.0879L21.2871 31.9785C21.4535 32.0879 21.6487 32.145 21.8477 32.1426C21.9589 32.1378 22.0691 32.1194 22.1758 32.0879C24.2615 31.421 26.1783 30.311 27.795 28.834C27.9093 28.7306 28.0002 28.6039 28.0615 28.4624C28.1229 28.3209 28.1532 28.1679 28.1504 28.0137L28.0957 24.295C28.3008 23.9668 28.4922 23.625 28.6836 23.2696L31.9375 21.4649C32.0733 21.3895 32.1912 21.2858 32.2832 21.1607C32.3752 21.0357 32.4392 20.8923 32.4707 20.7403C32.9356 18.6051 32.9356 16.3949 32.4707 14.2598ZM23.5157 17.5C23.5157 18.6898 23.1628 19.8529 22.5018 20.8421C21.8408 21.8314 20.9013 22.6024 19.8021 23.0577C18.7029 23.5131 17.4934 23.6322 16.3264 23.4001C15.1595 23.168 14.0876 22.595 13.2463 21.7537C12.405 20.9124 11.8321 19.8405 11.6 18.6736C11.3679 17.5067 11.487 16.2972 11.9423 15.198C12.3976 14.0987 13.1687 13.1592 14.1579 12.4982C15.1472 11.8372 16.3103 11.4844 17.5 11.4844C19.0955 11.4844 20.6256 12.1182 21.7537 13.2463C22.8819 14.3745 23.5157 15.9046 23.5157 17.5Z" fill="#ADB5BD"/>
</svg>
