<svg width="23" height="23" viewBox="0 0 23 23" fill="none" xmlns="http://www.w3.org/2000/svg">
<path d="M18.5844 13.5C18.5866 13.8076 18.4931 14.1083 18.3167 14.3602C18.1403 14.6122 17.8898 14.8031 17.6 14.9062L12.7063 16.7062L10.9063 21.6C10.7997 21.8871 10.6079 22.1346 10.3565 22.3095C10.1051 22.4843 9.80622 22.578 9.50002 22.578C9.19382 22.578 8.89495 22.4843 8.64356 22.3095C8.39218 22.1346 8.20032 21.8871 8.09377 21.6L6.29377 16.7062L1.40002 14.9062C1.11295 14.7997 0.865374 14.6078 0.690541 14.3565C0.515708 14.1051 0.421997 13.8062 0.421997 13.5C0.421997 13.1938 0.515708 12.8949 0.690541 12.6435C0.865374 12.3922 1.11295 12.2003 1.40002 12.0938L6.29377 10.2938L8.09377 5.4C8.20032 5.11293 8.39218 4.86536 8.64356 4.69052C8.89495 4.51569 9.19382 4.42198 9.50002 4.42198C9.80622 4.42198 10.1051 4.51569 10.3565 4.69052C10.6079 4.86536 10.7997 5.11293 10.9063 5.4L12.7063 10.2938L17.6 12.0938C17.8898 12.1969 18.1403 12.3878 18.3167 12.6398C18.4931 12.8917 18.5866 13.1924 18.5844 13.5ZM13.25 4.5H14.75V6C14.75 6.19891 14.829 6.38968 14.9697 6.53033C15.1103 6.67098 15.3011 6.75 15.5 6.75C15.6989 6.75 15.8897 6.67098 16.0303 6.53033C16.171 6.38968 16.25 6.19891 16.25 6V4.5H17.75C17.9489 4.5 18.1397 4.42098 18.2803 4.28033C18.421 4.13968 18.5 3.94891 18.5 3.75C18.5 3.55109 18.421 3.36032 18.2803 3.21967C18.1397 3.07902 17.9489 3 17.75 3H16.25V1.5C16.25 1.30109 16.171 1.11032 16.0303 0.96967C15.8897 0.829018 15.6989 0.75 15.5 0.75C15.3011 0.75 15.1103 0.829018 14.9697 0.96967C14.829 1.11032 14.75 1.30109 14.75 1.5V3H13.25C13.0511 3 12.8603 3.07902 12.7197 3.21967C12.579 3.36032 12.5 3.55109 12.5 3.75C12.5 3.94891 12.579 4.13968 12.7197 4.28033C12.8603 4.42098 13.0511 4.5 13.25 4.5ZM21.5 7.5H20.75V6.75C20.75 6.55109 20.671 6.36032 20.5303 6.21967C20.3897 6.07902 20.1989 6 20 6C19.8011 6 19.6103 6.07902 19.4697 6.21967C19.329 6.36032 19.25 6.55109 19.25 6.75V7.5H18.5C18.3011 7.5 18.1103 7.57902 17.9697 7.71967C17.829 7.86032 17.75 8.05109 17.75 8.25C17.75 8.44891 17.829 8.63968 17.9697 8.78033C18.1103 8.92098 18.3011 9 18.5 9H19.25V9.75C19.25 9.94891 19.329 10.1397 19.4697 10.2803C19.6103 10.421 19.8011 10.5 20 10.5C20.1989 10.5 20.3897 10.421 20.5303 10.2803C20.671 10.1397 20.75 9.94891 20.75 9.75V9H21.5C21.6989 9 21.8897 8.92098 22.0303 8.78033C22.171 8.63968 22.25 8.44891 22.25 8.25C22.25 8.05109 22.171 7.86032 22.0303 7.71967C21.8897 7.57902 21.6989 7.5 21.5 7.5Z" fill="#B3AC02"/>
</svg>