<svg width="26" height="26" viewBox="0 0 26 26" fill="none" xmlns="http://www.w3.org/2000/svg">
<path d="M24.8465 1.15353C24.6619 0.973613 24.414 0.873563 24.1562 0.875016V0.875016L16.4304 0.899234C16.2872 0.89942 16.1458 0.930954 16.0161 0.991621C15.8864 1.05229 15.7716 1.14062 15.6797 1.25041L7.15466 11.5676L6.14958 10.5625C5.78482 10.2031 5.2933 10.0016 4.78122 10.0016C4.26914 10.0016 3.77762 10.2031 3.41286 10.5625L1.87497 12.1004C1.69411 12.2794 1.55053 12.4926 1.45254 12.7274C1.35455 12.9623 1.3041 13.2143 1.3041 13.4688C1.3041 13.7233 1.35455 13.9752 1.45254 14.2101C1.55053 14.445 1.69411 14.6581 1.87497 14.8371L4.40583 17.368L0.773019 20.9887C0.412851 21.3555 0.21106 21.849 0.21106 22.3631C0.21106 22.8772 0.412851 23.3707 0.773019 23.7375L2.26247 25.227C2.63077 25.5843 3.12374 25.7841 3.63689 25.7841C4.15003 25.7841 4.643 25.5843 5.0113 25.227L8.632 21.5942L11.1629 24.125C11.5276 24.4844 12.0191 24.6859 12.5312 24.6859C13.0433 24.6859 13.5348 24.4844 13.8996 24.125L15.4375 22.5871C15.6183 22.4081 15.7619 22.195 15.8599 21.9601C15.9579 21.7252 16.0083 21.4733 16.0083 21.2188C16.0083 20.9643 15.9579 20.7123 15.8599 20.4774C15.7619 20.2426 15.6183 20.0294 15.4375 19.8504L14.4324 18.8453L24.7496 10.3203C24.8594 10.2284 24.9477 10.1136 25.0084 9.98385C25.069 9.85415 25.1006 9.71274 25.1008 9.56955L25.125 1.84377C25.1264 1.58603 25.0264 1.33808 24.8465 1.15353V1.15353ZM23.1633 9.10939L13.0519 17.4649L11.4777 15.8906L18.0652 9.31525C18.2197 9.12703 18.2986 8.88807 18.2867 8.64486C18.2747 8.40166 18.1728 8.17159 18.0006 7.99941C17.8284 7.82723 17.5983 7.72525 17.3551 7.7133C17.1119 7.70136 16.873 7.7803 16.6847 7.93478L10.1093 14.5223L8.53513 12.9481L16.8906 2.83673L23.1875 2.81252L23.1633 9.10939Z" fill="#033E8C"/>
</svg>
