<svg width="64" height="64" viewBox="0 0 64 64" fill="none" xmlns="http://www.w3.org/2000/svg">
<path d="M38.875 6.20003C38.5388 6.03784 38.164 5.97296 37.7929 6.01273C37.4218 6.05249 37.0692 6.19531 36.775 6.42503L19.3 20H8C6.93913 20 5.92172 20.4215 5.17157 21.1716C4.42143 21.9217 4 22.9392 4 24V40C4 41.0609 4.42143 42.0783 5.17157 42.8285C5.92172 43.5786 6.93913 44 8 44H19.3L36.775 57.575C37.1239 57.8505 37.5555 58.0003 38 58C38.3026 57.9964 38.6009 57.9282 38.875 57.8C39.2125 57.6358 39.497 57.3799 39.696 57.0616C39.8949 56.7433 40.0003 56.3754 40 56V8.00003C40.0003 7.62466 39.8949 7.25678 39.696 6.93847C39.497 6.62015 39.2125 6.36425 38.875 6.20003Z" fill="#033E8C"/>
<path d="M48 24C47.4696 24 46.9609 24.2107 46.5858 24.5858C46.2107 24.9609 46 25.4696 46 26V38C46 38.5304 46.2107 39.0391 46.5858 39.4142C46.9609 39.7893 47.4696 40 48 40C48.5304 40 49.0391 39.7893 49.4142 39.4142C49.7893 39.0391 50 38.5304 50 38V26C50 25.4696 49.7893 24.9609 49.4142 24.5858C49.0391 24.2107 48.5304 24 48 24Z" fill="#033E8C"/>
<path d="M56 20C55.4696 20 54.9609 20.2107 54.5858 20.5858C54.2107 20.9609 54 21.4696 54 22V42C54 42.5304 54.2107 43.0391 54.5858 43.4142C54.9609 43.7893 55.4696 44 56 44C56.5304 44 57.0391 43.7893 57.4142 43.4142C57.7893 43.0391 58 42.5304 58 42V22C58 21.4696 57.7893 20.9609 57.4142 20.5858C57.0391 20.2107 56.5304 20 56 20Z" fill="#033E8C"/>
</svg>
