<svg width="68" height="49" viewBox="0 0 68 49" fill="none" xmlns="http://www.w3.org/2000/svg">
<path d="M37.1875 6.8125C37.1875 5.55165 37.5614 4.31911 38.2619 3.27074C38.9624 2.22238 39.958 1.40528 41.1229 0.922771C42.2878 0.440262 43.5696 0.314016 44.8062 0.559997C46.0429 0.805977 47.1788 1.41314 48.0703 2.3047C48.9619 3.19626 49.5691 4.33217 49.815 5.5688C50.061 6.80543 49.9348 8.08723 49.4523 9.25211C48.9698 10.417 48.1527 11.4126 47.1043 12.1131C46.0559 12.8136 44.8234 13.1875 43.5625 13.1875C41.8739 13.1805 40.2565 12.5066 39.0624 11.3126C37.8684 10.1186 37.1945 8.5011 37.1875 6.8125ZM67.7344 47.1875C67.5442 47.5115 67.2725 47.7801 66.9463 47.9665C66.6201 48.1529 66.2507 48.2507 65.875 48.25H2.12503C1.75219 48.2542 1.38513 48.1577 1.06256 47.9707C0.739979 47.7837 0.473844 47.5131 0.292218 47.1875C0.0980209 46.8623 -0.0045166 46.4905 -0.0045166 46.1117C-0.0045166 45.7329 0.0980209 45.3612 0.292218 45.0359L19.7094 12.0453C20.0844 11.4062 20.6199 10.8763 21.2629 10.508C21.9059 10.1398 22.634 9.94606 23.375 9.94606C24.116 9.94606 24.8441 10.1398 25.4871 10.508C26.1301 10.8763 26.6657 11.4062 27.0407 12.0453L38.2766 31.1438L45.2094 19.4297C45.5895 18.7971 46.1269 18.2737 46.7692 17.9103C47.4116 17.5469 48.137 17.3559 48.875 17.3559C49.613 17.3559 50.3385 17.5469 50.9808 17.9103C51.6232 18.2737 52.1605 18.7971 52.5407 19.4297L67.7078 45.0359C67.8957 45.3624 67.9968 45.7316 68.0014 46.1083C68.0061 46.4849 67.9141 46.8565 67.7344 47.1875V47.1875ZM17.0797 24.875H29.6703L23.375 14.1969L17.0797 24.875Z" fill="#033E8C"/>
</svg>
