<svg width="66" height="56" viewBox="0 0 66 56" fill="none" xmlns="http://www.w3.org/2000/svg">
<path d="M23.75 46.5546C25.5876 46.5622 27.3478 47.2955 28.6471 48.5949C29.9465 49.8943 30.6799 51.6545 30.6875 53.4921C30.6875 54.1054 30.9311 54.6936 31.3648 55.1273C31.7985 55.5609 32.3867 55.8046 33 55.8046C33.6133 55.8046 34.2015 55.5609 34.6352 55.1273C35.0689 54.6936 35.3125 54.1054 35.3125 53.4921C35.3201 51.6545 36.0535 49.8943 37.3529 48.5949C38.6522 47.2955 40.4124 46.5622 42.25 46.5546H60.75C61.9766 46.5546 63.153 46.0673 64.0204 45.1999C64.8877 44.3326 65.375 43.1562 65.375 41.9296V4.92957C65.375 3.70294 64.8877 2.52655 64.0204 1.6592C63.153 0.791841 61.9766 0.304565 60.75 0.304565H46.875C43.8084 0.304565 40.8675 1.52275 38.6991 3.69114C36.5307 5.85953 35.3125 8.8005 35.3125 11.8671V34.9921C35.3125 35.6054 35.0689 36.1936 34.6352 36.6273C34.2015 37.0609 33.6133 37.3046 33 37.3046C32.3867 37.3046 31.7985 37.0609 31.3648 36.6273C30.9311 36.1936 30.6875 35.6054 30.6875 34.9921V11.8671C30.6875 8.8005 29.4693 5.85953 27.3009 3.69114C25.1325 1.52275 22.1916 0.304565 19.125 0.304565H5.25C4.02337 0.304565 2.84699 0.791841 1.97963 1.6592C1.11228 2.52655 0.625 3.70294 0.625 4.92957V41.9296C0.625 43.1562 1.11228 44.3326 1.97963 45.1999C2.84699 46.0673 4.02337 46.5546 5.25 46.5546H23.75Z" fill="#033E8C"/>
</svg>
