<svg width="61" height="53" viewBox="0 0 61 53" fill="none" xmlns="http://www.w3.org/2000/svg">
<path d="M42.2188 18.2969C42.2188 19.2293 41.8484 20.1235 41.189 20.7828C40.5297 21.4421 39.6355 21.8125 38.7031 21.8125C37.7707 21.8125 36.8765 21.4421 36.2172 20.7828C35.5579 20.1235 35.1875 19.2293 35.1875 18.2969C35.1875 17.3645 35.5579 16.4703 36.2172 15.811C36.8765 15.1516 37.7707 14.7812 38.7031 14.7812C39.6355 14.7812 40.5297 15.1516 41.189 15.811C41.8484 16.4703 42.2188 17.3645 42.2188 18.2969ZM60.9688 5.40625V42.9062V47.5938C60.9688 48.837 60.4749 50.0292 59.5958 50.9083C58.7167 51.7874 57.5245 52.2812 56.2812 52.2812H4.71875C3.47555 52.2812 2.28326 51.7874 1.40419 50.9083C0.52511 50.0292 0.03125 48.837 0.03125 47.5938V38.2188V5.40625C0.03125 4.16305 0.52511 2.97076 1.40419 2.09169C2.28326 1.21261 3.47555 0.71875 4.71875 0.71875H56.2812C57.5245 0.71875 58.7167 1.21261 59.5958 2.09169C60.4749 2.97076 60.9688 4.16305 60.9688 5.40625ZM56.2812 37.252V5.40625H4.71875V32.5645L15.4707 21.8125C16.3532 20.943 17.5423 20.4555 18.7812 20.4555C20.0202 20.4555 21.2093 20.943 22.0918 21.8125L35.1875 34.9082L41.252 28.8438C42.1344 27.9742 43.3236 27.4868 44.5625 27.4868C45.8014 27.4868 46.9906 27.9742 47.873 28.8438L56.2812 37.252Z" fill="#033E8C"/>
</svg>
