<svg width="328" height="220" viewBox="0 0 328 220" fill="none" xmlns="http://www.w3.org/2000/svg">
<g clip-path="url(#clip0_2_2404)">
<path d="M265.446 135.257C265.739 135.284 266.034 135.221 266.29 135.076C266.545 134.932 266.75 134.713 266.876 134.449C267.003 134.185 267.044 133.889 266.995 133.602C266.945 133.314 266.808 133.048 266.602 132.84C266.572 132.696 266.551 132.592 266.521 132.448C266.536 132.418 266.55 132.387 266.565 132.357C266.893 131.678 267.417 131.11 268.07 130.724C268.724 130.339 269.477 130.154 270.236 130.192C270.995 130.229 271.726 130.489 272.337 130.937C272.948 131.385 273.412 132.003 273.67 132.711C274.702 135.539 276.051 138.387 276.278 141.338C276.378 142.642 276.248 143.953 275.895 145.214C278.903 139.437 280.622 133.087 280.936 126.595C281.013 124.965 280.998 123.333 280.891 121.705C280.802 120.371 280.655 119.043 280.448 117.722C279.318 110.555 276.489 103.755 272.193 97.8813C270.042 96.5853 268.342 94.6667 267.324 92.384C266.955 91.5633 266.708 90.6939 266.59 89.803C266.838 89.8469 267.09 89.8788 267.338 89.9065C267.416 89.9141 267.497 89.9219 267.575 89.9296L267.604 89.9322C267.877 89.957 268.152 89.903 268.395 89.7768C268.637 89.6505 268.838 89.4573 268.973 89.2205C269.108 88.9837 269.171 88.7133 269.154 88.4419C269.137 88.1705 269.042 87.9097 268.879 87.6908C268.778 87.5547 268.676 87.4186 268.575 87.2826C268.421 87.0727 268.263 86.8667 268.109 86.6568C268.091 86.6367 268.074 86.6156 268.059 86.5936C267.882 86.3543 267.705 86.119 267.527 85.8796C267.895 85.368 268.377 84.9475 268.936 84.6508C270.869 83.6449 273.431 84.5216 274.711 86.2719C275.996 88.0225 276.142 90.4019 275.569 92.4886C275.019 94.2613 274.168 95.9282 273.054 97.418C273.15 97.5523 273.25 97.6826 273.346 97.8169C275.101 100.281 276.607 102.91 277.844 105.666C277.654 102.634 278.193 99.6005 279.417 96.8153C280.646 94.2238 282.822 92.0938 284.754 89.8935C287.074 87.2506 291.51 88.6554 291.733 92.1517C291.735 92.1856 291.737 92.2194 291.739 92.2532C291.461 92.3922 291.188 92.5408 290.921 92.6989C290.585 92.8998 290.318 93.1966 290.155 93.5505C289.992 93.9043 289.94 94.2988 290.007 94.6821C290.074 95.0654 290.256 95.4198 290.53 95.6987C290.804 95.9776 291.156 96.1681 291.541 96.2452L291.58 96.2531C291.438 97.2165 291.222 98.1679 290.935 99.0989C290.107 101.697 288.746 104.097 286.937 106.15C285.129 108.202 282.913 109.862 280.427 111.025C280.264 111.099 280.105 111.172 279.942 111.242C281.131 115.153 281.802 119.2 281.938 123.283C282.011 125.691 281.887 128.101 281.567 130.489L281.583 130.405C282.231 127.762 283.779 125.423 285.966 123.781C289.212 121.379 293.673 120.646 297.142 118.755C297.511 118.544 297.934 118.441 298.36 118.46C298.786 118.478 299.198 118.617 299.547 118.86C299.896 119.103 300.167 119.44 300.329 119.831C300.492 120.222 300.538 120.651 300.462 121.067C300.456 121.096 300.45 121.126 300.444 121.155C299.932 121.335 299.431 121.546 298.945 121.788C298.667 121.927 298.394 122.076 298.127 122.234C297.791 122.435 297.524 122.731 297.361 123.085C297.198 123.439 297.146 123.834 297.213 124.217C297.28 124.6 297.462 124.955 297.736 125.233C298.01 125.512 298.362 125.703 298.747 125.78L298.786 125.788C298.814 125.793 298.839 125.798 298.867 125.804C297.913 127.797 296.619 129.613 295.043 131.172C293.098 133.056 290.785 134.528 288.245 135.495C285.706 136.462 282.994 136.905 280.276 136.797L280.272 136.797C279.385 139.94 278.172 142.983 276.65 145.877L265.258 145.352C265.223 145.224 265.192 145.093 265.162 144.966C266.213 145.08 267.274 145.067 268.322 144.925C267.526 143.858 266.729 142.783 265.932 141.716C265.914 141.696 265.897 141.675 265.882 141.653C265.478 141.107 265.069 140.565 264.665 140.019L264.665 140.018C264.718 138.405 264.98 136.804 265.446 135.257L265.446 135.257Z" fill="#F2F2F2"/>
<path d="M35.9095 37.6178C35.6185 37.6627 35.3207 37.6178 35.0563 37.4893C34.7919 37.3607 34.5738 37.1547 34.4315 36.8992C34.2892 36.6436 34.2295 36.3509 34.2607 36.0607C34.2918 35.7705 34.4122 35.4967 34.6056 35.2766C34.626 35.1309 34.6407 35.0262 34.6611 34.8805C34.6448 34.851 34.6285 34.8216 34.6121 34.7922C34.2418 34.1342 33.6836 33.5994 33.0076 33.2549C32.3316 32.9103 31.568 32.7715 30.8126 32.8557C30.0572 32.94 29.3438 33.2436 28.762 33.7284C28.1802 34.2132 27.7559 34.8576 27.5424 35.5807C26.6887 38.4668 25.5195 41.3917 25.4772 44.3505C25.4592 45.6583 25.6701 46.9593 26.1007 48.1956C22.7391 42.6143 20.6277 36.3818 19.9095 29.9208C19.731 28.2993 19.644 26.6691 19.6491 25.038C19.6545 23.7007 19.7192 22.3665 19.8431 21.0354C20.5239 13.8123 22.9236 6.8523 26.8452 0.726928C28.9122 -0.698336 30.4887 -2.71735 31.3623 -5.05805C31.6795 -5.89979 31.872 -6.7826 31.934 -7.67902C31.6897 -7.62007 31.4399 -7.57278 31.1938 -7.52996C31.1171 -7.51763 31.0362 -7.50482 30.9595 -7.49246L30.9305 -7.48802C30.6594 -7.44654 30.382 -7.4836 30.1316 -7.59476C29.8813 -7.70591 29.6687 -7.88641 29.5195 -8.11454C29.3702 -8.34266 29.2907 -8.60869 29.2904 -8.88057C29.2902 -9.15246 29.3692 -9.41862 29.518 -9.64702C29.6107 -9.78911 29.7035 -9.93114 29.7963 -10.0731C29.9368 -10.292 30.0818 -10.5074 30.2222 -10.7262C30.2388 -10.7474 30.2543 -10.7695 30.2684 -10.7924C30.4302 -11.0421 30.5923 -11.2878 30.754 -11.5376C30.3552 -12.0257 29.848 -12.4159 29.2721 -12.6778C27.2794 -13.5633 24.7776 -12.5315 23.6087 -10.7061C22.4358 -8.88022 22.4383 -6.49636 23.14 -4.44875C23.7995 -2.71315 24.7522 -1.10147 25.9573 0.317258C25.8699 0.457117 25.7779 0.593361 25.6905 0.733216C24.0931 3.30031 22.7535 6.01639 21.6907 8.8425C21.6912 5.80473 20.9641 2.81024 19.5692 0.105342C18.1807 -2.40598 15.8761 -4.39864 13.8111 -6.47647C11.3308 -8.97225 6.98996 -7.29835 6.98567 -3.79512C6.98563 -3.7612 6.98568 -3.72731 6.98581 -3.69343C7.27201 -3.57171 7.55354 -3.44012 7.83038 -3.29867C8.17841 -3.11879 8.46349 -2.8389 8.64829 -2.49568C8.83309 -2.15246 8.90897 -1.76193 8.86601 -1.37523C8.82304 -0.988532 8.66323 -0.623717 8.40751 -0.328584C8.15179 -0.0334506 7.81208 0.17824 7.4329 0.278743L7.39407 0.28904C7.59584 1.24196 7.87041 2.17829 8.21539 3.08995C9.20413 5.63225 10.7121 7.94467 12.6447 9.88225C14.5774 11.8198 16.893 13.3408 19.4465 14.3498C19.6139 14.4132 19.7771 14.4771 19.944 14.5366C19.001 18.5128 18.5836 22.5936 18.7023 26.6765C18.7801 29.0844 19.0542 31.4822 19.522 33.8464L19.5006 33.7631C18.6892 31.1656 16.9983 28.9252 14.7134 27.4203C11.3238 25.2223 6.8254 24.7634 3.24512 23.0889C2.86346 22.9003 2.43535 22.8238 2.01129 22.8685C1.58723 22.9132 1.18491 23.0772 0.85177 23.341C0.518633 23.6049 0.268577 23.9577 0.131097 24.3578C-0.00638238 24.7579 -0.0255544 25.1887 0.0758449 25.5992C0.0835957 25.6284 0.0914276 25.6575 0.0993348 25.6867C0.621903 25.8347 1.13465 26.0149 1.63461 26.2262C1.92082 26.3479 2.20234 26.4795 2.47918 26.6209C2.8272 26.8008 3.11229 27.0807 3.29709 27.4239C3.48189 27.7671 3.55777 28.1577 3.51481 28.5444C3.47184 28.9311 3.31203 29.2959 3.05631 29.591C2.80059 29.8862 2.46088 30.0979 2.0817 30.1984L2.04284 30.2086C2.01485 30.2157 1.9909 30.2224 1.96295 30.2295C3.04 32.1608 4.44441 33.8939 6.11466 35.3529C8.17358 37.1151 10.5739 38.4418 13.1685 39.2518C15.7631 40.0618 18.4973 40.338 21.2034 40.0634L21.2075 40.063C22.2885 43.1456 23.6899 46.1086 25.3889 48.9041L36.7264 47.6818C36.7534 47.5525 36.7758 47.4197 36.7987 47.2909C35.7564 47.4694 34.696 47.5208 33.6412 47.4439C34.3701 46.3301 35.0981 45.2083 35.827 44.0946C35.8437 44.0735 35.8591 44.0514 35.8732 44.0285C36.2424 43.4589 36.6162 42.8929 36.9854 42.3233L36.9855 42.3226C36.8321 40.7152 36.4706 39.134 35.9098 37.6181L35.9095 37.6178Z" fill="#F2F2F2"/>
<path d="M192.546 33.4535C193.107 33.6065 193.628 33.8796 194.071 34.2536C194.514 34.6276 194.869 35.0933 195.111 35.618C195.353 36.1427 195.476 36.7136 195.471 37.2905C195.466 37.8673 195.334 38.4361 195.083 38.9568L201.167 45.6611L197.959 50.3194L189.501 40.732C188.646 40.2568 187.997 39.4874 187.677 38.5696C187.356 37.6518 187.386 36.6493 187.762 35.7522C188.137 34.855 188.832 34.1254 189.713 33.7018C190.595 33.2781 191.603 33.1898 192.546 33.4535Z" fill="#A0616A"/>
<path d="M249.503 49.916C248.955 49.0312 248.236 48.2624 247.387 47.6537C246.538 47.045 245.576 46.6084 244.556 46.3689C243.537 46.1295 242.48 46.0919 241.446 46.2583C240.411 46.4246 239.421 46.7918 238.53 47.3386L218.521 59.6214L196.938 41.4368L191.568 46.3924L215.411 77.0547L246.401 61.0421C245.677 61.4158 250.377 51.3258 249.503 49.916Z" fill="#CCCCCC"/>
<path d="M209.865 90.7571C209.867 100.552 207.923 110.251 204.142 119.3C200.361 128.35 194.819 136.572 187.831 143.498C180.843 150.424 172.547 155.918 163.417 159.665C154.287 163.413 144.502 165.34 134.62 165.338C93.063 165.338 59.3738 131.947 59.3738 90.7571C59.3666 82.7451 60.6624 74.7844 63.2114 67.1811C68.2157 52.3321 77.8028 39.418 90.6172 30.265C103.432 21.112 118.825 16.1833 134.62 16.1759C148.242 16.1712 161.61 19.8331 173.296 26.7708C184.983 33.7085 194.549 43.6614 200.974 55.5672C202.567 58.5046 203.957 61.546 205.133 64.6703C205.296 65.1053 205.455 65.5403 205.61 65.9795V65.9837C206.3 67.9145 206.907 69.8812 207.433 71.8839C209.053 78.0462 209.871 84.3889 209.865 90.7571Z" fill="#3F3D56"/>
<path d="M126.387 40.438C123.005 38.6255 119.251 37.6024 115.41 37.4466C111.569 37.2909 107.743 38.0066 104.223 39.5392C101.124 40.876 97.8609 43.2739 96.8271 47.6042C101.008 45.1585 106.421 49.0227 107.496 55.2218L107.245 55.2904C106.677 59.5841 107.946 64.2588 110.402 66.9213C110.724 64.1558 112.559 62.2736 114.363 61.0979C116.168 59.9222 118.164 59.0681 119.541 57.0471C121.174 54.6513 121.588 51.1498 122.237 47.9555C122.886 44.7613 124.116 41.3281 126.387 40.438Z" fill="white"/>
<path d="M102.983 76.9761C101.825 78.6997 100.278 79.7812 98.8902 81.1278C97.5066 82.4786 96.1897 84.3016 95.9138 86.6427C95.7382 88.1426 96.01 89.6673 95.9723 91.1839C95.9348 92.7003 95.4247 94.4074 94.3838 94.7845C92.741 95.3728 91.4868 92.3481 89.798 92.1368C88.4561 91.9711 87.248 94.0635 87.6368 95.8783C88.0256 97.6932 89.8524 98.4969 90.9016 97.3119C91.8506 98.8906 91.1817 101.754 89.7562 102.238C89.6057 103.233 89.4553 104.223 89.3089 105.218C85.7055 102.719 82.0644 100.179 79.0003 96.5205C75.5924 92.486 73.4787 87.5341 72.9304 82.3004C72.5333 78.0948 73.1227 73.2844 71.1747 70.0484C69.6154 67.4588 66.94 66.8869 64.5321 67.0486C64.0932 67.0776 63.6501 67.1273 63.2112 67.1811C64.6312 62.9539 66.4347 58.8628 68.5996 54.9581C69.0895 54.7497 69.5447 54.4689 69.9498 54.1253C72.1905 52.2401 73.1854 48.424 75.0039 45.7846C75.1209 45.6147 75.2421 45.449 75.3675 45.2874C77.2278 42.8801 79.7193 41.6412 82.1272 40.4893C87.4571 37.9246 92.9416 35.3267 98.5684 35.683L96.9673 35.8363C95.0987 41.0238 93.2287 46.2114 91.3573 51.3989C91.073 52.1944 90.786 52.9913 90.4962 53.7897C89.4344 56.7397 88.3391 59.8805 88.5021 63.1827C88.5983 65.1384 89.2838 67.2267 90.5881 67.8979C91.8046 68.5194 93.1339 67.7571 94.3086 67.0029C94.806 66.688 95.2994 66.3731 95.7968 66.0541C97.5818 64.9146 99.5591 63.7462 101.444 64.5086C103.171 65.2047 104.446 67.5291 104.688 70.0359C104.911 72.4727 104.311 74.9137 102.983 76.9761Z" fill="white"/>
<path d="M113.599 112.393C108.386 109.211 103.173 106.03 97.9594 102.848L98.0478 102.622C94.8065 103.846 93.4607 109.557 93.9964 114.227C94.5321 118.897 96.3485 123.072 97.2661 127.623C98.5034 133.85 98.0364 140.292 95.9136 146.28C102.769 138.656 108.835 130.37 114.023 121.547C114.747 120.435 115.3 119.221 115.661 117.946C115.992 116.591 115.941 114.96 115.278 113.873C114.851 113.249 114.274 112.74 113.599 112.393Z" fill="white"/>
<path d="M93.0241 54.5114C92.4705 55.745 92.2575 57.39 92.7599 58.6665C93.2729 59.9701 94.3575 60.5593 95.3561 61.0498L98.2367 62.465C99.195 62.9359 100.228 63.4114 101.205 63.024C102.383 62.5568 103.2 60.7259 102.989 59.0261C102.764 57.2173 101.614 55.9731 100.55 54.9136C99.0609 53.4309 97.5721 51.9482 96.0834 50.4655L95.2443 51.484C94.3368 52.3614 93.5861 53.385 93.0241 54.5114Z" fill="white"/>
<path d="M194.423 73.8478C195.719 74.1503 197.015 74.4528 198.311 74.7552C198.085 79.0934 195.916 83.1084 193.006 84.5627C191.794 85.1676 190.444 85.3913 189.44 86.5225C188.533 87.5501 188.073 89.1494 187.651 90.6783C186.911 93.3467 186.171 96.015 185.431 98.6833C184.637 101.559 183.617 104.753 181.552 105.789C179.78 106.68 177.752 105.59 176.389 103.763C175.027 101.936 174.195 99.4789 173.388 97.0841C173.438 99.6944 172.213 102.255 170.478 103.162C168.739 104.07 166.624 103.249 165.462 101.223C164.626 99.769 164.279 97.8505 163.46 96.3755C162.64 94.9005 160.922 94.0552 160.028 95.4391C159.438 96.359 159.513 97.7677 159.221 98.9361C158.765 100.751 157.386 101.89 156.019 101.99C154.656 102.089 153.326 101.31 152.185 100.254C149.832 98.066 148.097 94.5939 147.424 90.7363C147.127 89.0168 147.043 87.144 147.558 85.5322C148.072 83.9205 149.313 82.6774 150.547 82.9841C151.358 81.2852 149.757 79.0312 148.314 79.2301C146.868 79.429 145.735 80.9662 144.548 82.1471C143.365 83.3279 141.709 84.1856 140.518 83.013C140.526 84.1027 139.632 84.8237 138.858 84.7325C138.089 84.6455 137.404 84.0323 136.697 83.5972C133.967 81.9109 130.502 83.0296 128.562 86.22C129.775 81.1071 131.551 75.24 135.276 74.0384C136.798 73.5454 138.457 73.9514 139.895 73.0978C142.441 71.5855 142.955 65.8718 140.756 63.5142C141.036 65.7433 140.982 68.3453 139.795 69.8701C138.608 71.3949 136.116 70.4005 136.267 68.1465C135.924 69.7002 134.218 69.9364 133.432 68.7431C132.642 67.5498 132.709 65.5983 133.269 64.173C133.829 62.7476 134.783 61.7242 135.706 60.7422C137.692 58.6332 139.707 56.4994 142.006 55.1734C144.31 53.8476 146.968 53.4001 149.276 54.7177C150.492 55.4138 151.562 56.574 152.804 57.1872C154.046 57.8045 155.621 57.7259 156.445 56.2839C157.369 54.6763 156.934 52.2897 157.277 50.2801C157.891 46.7292 161.474 45.0677 163.46 47.4129C161.976 47.0358 160.441 48.7761 160.257 50.8851C160.069 52.9941 161.144 55.1238 162.582 55.7619C164.998 56.8226 167.364 54.1542 169.191 51.6847C171.097 49.0993 173.006 46.5152 174.918 43.9324C175.223 43.4927 175.566 43.0796 175.942 42.6977C176.541 42.1192 177.339 41.788 178.175 41.7711C179.011 41.7541 179.822 42.0528 180.444 42.6066C182.376 44.1686 183.283 47.3715 184.867 49.5758C187.166 52.7786 190.607 53.5576 193.809 54.1791C196.196 54.639 198.584 55.1017 200.974 55.5671C202.567 58.5045 203.957 61.5459 205.133 64.6702C201.087 66.3731 197.354 69.5594 194.423 73.8478Z" fill="white"/>
<path d="M202.14 123.701C200.349 127.306 198.266 130.76 195.912 134.031C194.407 133.393 192.789 134.532 191.38 135.601C189.909 136.72 188.14 137.81 186.631 136.79C185.089 135.746 184.591 132.825 185.08 130.509C185.569 128.197 186.79 126.357 187.973 124.609C189.227 122.752 190.569 120.826 192.312 120.105C194.06 119.384 196.304 120.403 196.815 122.864L198.052 122.823C197.358 121.878 197.722 119.922 198.654 119.579C199.728 119.177 200.66 120.639 201.296 121.932C201.58 122.516 201.869 123.105 202.14 123.701Z" fill="white"/>
<path d="M154.75 106.2C152.09 106.366 149.983 103.12 148.583 99.9278C147.183 96.7352 145.906 93.0842 143.506 91.4592C142.135 90.5306 140.572 90.4032 139.084 89.9533C137.597 89.5034 136.04 88.5723 135.329 86.6763L133.642 86.0007C131.414 87.2425 129.156 88.507 127.236 90.5278C125.083 92.7949 123.742 95.7012 123.42 98.7985C123.097 102.146 124.287 105.878 126.511 107.135C128.268 108.129 130.314 107.503 132.094 108.412C134.317 109.549 135.638 112.85 136.137 116.109C136.637 119.369 136.511 122.756 136.868 126.052C137.226 129.349 138.211 132.779 140.25 134.468C142.802 136.582 146.547 134.825 147.692 130.977C148.253 129.09 148.234 126.96 148.654 125C149.394 121.55 151.39 118.99 152.973 116.159C154.556 113.329 155.803 109.485 154.75 106.2Z" fill="white"/>
<path d="M128.468 72.2938C128.716 72.5201 128.948 72.7637 129.161 73.0226C129.381 73.3995 129.494 73.829 129.486 74.2647C129.479 74.7004 129.352 75.1258 129.118 75.495C129.439 75.477 129.752 75.3932 130.038 75.2491C130.324 75.105 130.577 74.9037 130.78 74.6578C131.266 74.1099 131.693 73.5137 132.054 72.8787C132.326 72.4403 132.614 71.8475 132.43 71.3268C132.305 70.9714 132.007 70.8197 131.799 70.5525C131.469 70.1288 131.387 69.4559 131.216 68.8744C130.847 67.6185 129.963 66.695 129.003 66.563L129.137 66.5883C128.736 66.7244 128.456 67.3554 128.545 67.9231C128.625 68.4402 128.961 68.8694 128.927 69.3968C128.879 70.1551 128.115 70.5109 128.067 71.2693C128.06 71.6497 128.204 72.0178 128.468 72.2938Z" fill="white"/>
<path d="M123.911 59.4077C123.915 59.4066 123.919 59.4064 123.923 59.4054C124.005 59.3315 124.081 59.2514 124.15 59.1658L123.911 59.4077Z" fill="#E6E6E6"/>
<path d="M124.709 62.9671C125.297 62.5923 125.625 61.5557 125.431 60.6881C125.238 59.8259 124.554 59.2462 123.923 59.4054C123.74 59.5893 123.513 59.724 123.263 59.797C123.013 59.8699 122.748 59.8787 122.494 59.8224C122.104 59.7229 121.676 59.4666 121.338 59.7578C121.144 59.9753 121.009 60.2374 120.944 60.5201C120.819 60.901 120.694 61.2819 120.568 61.6627C120.509 61.7991 120.494 61.9503 120.524 62.0957C120.548 62.154 120.587 62.2052 120.636 62.2443C120.686 62.2835 120.745 62.3093 120.808 62.3193C121.559 62.5388 122.31 62.7583 123.061 62.9777C123.609 63.1377 124.2 63.2918 124.709 62.9671Z" fill="white"/>
<path d="M181.412 112.107C181.064 111.544 180.717 110.981 180.37 110.417C180.029 109.765 179.563 109.184 178.998 108.709C178.873 108.606 178.729 108.528 178.574 108.481C178.42 108.434 178.257 108.418 178.095 108.434C177.934 108.45 177.778 108.497 177.635 108.574C177.493 108.651 177.367 108.755 177.266 108.881L177.308 109.203C178.1 110.187 178.937 111.28 179.138 112.741C179.217 113.316 179.189 113.912 179.259 114.491C179.328 115.069 179.526 115.669 179.902 115.918C180.449 116.28 181.091 115.746 181.48 115.095C181.828 114.56 181.984 113.925 181.923 113.291C181.836 112.866 181.662 112.463 181.412 112.107Z" fill="white"/>
<path d="M196.864 90.5899C196.964 89.9372 197.065 89.2846 197.165 88.6319C197.328 87.915 197.348 87.1735 197.225 86.449C197.197 86.2907 197.137 86.1396 197.049 86.0045C196.961 85.8694 196.847 85.7531 196.713 85.6624C196.58 85.5717 196.429 85.5084 196.27 85.4763C196.111 85.4442 195.947 85.4439 195.788 85.4754L195.612 85.7486C195.578 87.0066 195.508 88.3774 194.713 89.623C194.399 90.114 193.991 90.5523 193.668 91.0391C193.346 91.5258 193.107 92.1105 193.233 92.5417C193.416 93.1676 194.254 93.169 194.975 92.919C195.589 92.7318 196.121 92.3452 196.486 91.8217C196.696 91.4411 196.824 91.0218 196.864 90.5899Z" fill="#E6E6E6"/>
<path d="M186.858 112.841C187.028 112.357 186.783 111.802 186.731 111.268C186.706 110.577 186.891 109.895 187.261 109.31C187.629 108.758 187.908 108.152 188.087 107.515C188.163 107.224 188.149 106.918 188.048 106.636C187.933 106.38 187.654 106.263 187.495 106.466L187.836 106.684C187.375 106.602 186.901 106.625 186.45 106.75C186.192 106.848 185.962 107.006 185.78 107.21C185.597 107.415 185.466 107.66 185.399 107.925C185.342 108.338 185.25 108.746 185.123 109.143C184.919 109.558 184.525 109.696 184.277 110.061C184.108 110.384 184.023 110.744 184.029 111.108C184.035 111.472 184.132 111.828 184.312 112.146C184.623 112.665 185.118 113.051 185.701 113.228C186.118 113.377 186.667 113.384 186.858 112.841Z" fill="white"/>
<path d="M196.557 115.741C196.708 116.13 196.91 116.498 197.158 116.834C197.623 117.298 198.254 117.013 198.817 116.901C199.328 116.82 199.852 116.879 200.332 117.07C200.813 117.261 201.232 117.577 201.545 117.985C201.327 116.905 200.85 115.893 200.155 115.034C199.46 114.174 198.567 113.493 197.551 113.046C196.223 112.51 194.825 112.458 193.444 112.41L193.205 112.47C193.813 114.224 195.722 114.185 196.557 115.741Z" fill="white"/>
<path d="M155.477 119.328L155.481 119.336C155.504 119.292 155.527 119.248 155.55 119.203L155.477 119.328Z" fill="#E6E6E6"/>
<path d="M154.006 122.151C153.685 122.729 153.409 123.33 153.18 123.949C152.878 124.951 152.677 125.982 152.582 127.024C152.507 127.617 152.484 128.374 152.859 128.663C152.966 128.733 153.096 128.763 153.224 128.746C153.352 128.728 153.47 128.666 153.554 128.569C153.762 128.351 153.933 128.1 154.058 127.826C154.794 126.569 155.366 125.225 155.759 123.824C156.118 122.349 156.115 120.613 155.481 119.336C154.989 120.274 154.498 121.213 154.006 122.151Z" fill="white"/>
<path d="M139.811 46.9419C140.044 47.1683 140.34 47.3221 140.661 47.3841C140.981 47.4462 141.314 47.4139 141.616 47.2911C142.242 47.0197 142.817 46.6435 143.315 46.179C143.727 45.8767 144.077 45.4987 144.345 45.0655C144.492 44.8067 144.587 44.5215 144.623 44.2262C144.659 43.931 144.636 43.6317 144.555 43.3453C144.323 42.6709 143.732 42.4449 143.212 42.2918C142.378 42.0468 141.544 41.8017 140.71 41.5567L141.314 41.0179C140.693 40.6879 140.007 41.3004 139.619 42.0588C139.37 42.554 139.197 43.083 139.104 43.6285C138.897 44.8189 139.1 46.2364 139.811 46.9419Z" fill="#E6E6E6"/>
<path d="M154.53 42.0443C154.765 42.3011 155.089 42.4596 155.438 42.4877C155.787 42.5158 156.133 42.4114 156.407 42.1957C156.642 42.0203 156.838 41.7976 156.981 41.5422C157.124 41.2869 157.211 41.0045 157.237 40.7135C157.296 40.0635 156.972 39.3411 156.508 39.285L156.614 38.6764C155.722 38.5168 154.625 38.4848 154.147 39.5585C153.985 39.9699 153.936 40.4159 154.003 40.8521C154.07 41.2883 154.252 41.6994 154.53 42.0443Z" fill="#E6E6E6"/>
<path d="M152.563 9.68231C147.333 9.09758 142.083 10.596 137.968 13.848C133.853 17.1 131.21 21.8391 130.62 27.0228C129.391 37.8173 135.129 61.2578 145.589 70.9612C150.515 52.3703 167.775 41.3432 170.058 31.4322C172.499 20.8419 163.454 10.8999 152.563 9.68231Z" fill="#F2CB05"/>
<path d="M148.946 33.6796C152.521 33.6796 155.418 30.8076 155.418 27.2648C155.418 23.7221 152.521 20.8501 148.946 20.8501C145.372 20.8501 142.474 23.7221 142.474 27.2648C142.474 30.8076 145.372 33.6796 148.946 33.6796Z" fill="white"/>
<path d="M142.141 80.2104C144.482 80.2104 146.38 78.3293 146.38 76.0088C146.38 73.6884 144.482 71.8073 142.141 71.8073C139.8 71.8073 137.902 73.6884 137.902 76.0088C137.902 78.3293 139.8 80.2104 142.141 80.2104Z" fill="#033E8C"/>
<path opacity="0.2" d="M154.301 22.669C155.03 23.1029 155.665 23.6747 156.17 24.3519C156.676 25.0291 157.042 25.7983 157.247 26.6156C157.453 27.433 157.494 28.2825 157.369 29.1156C157.243 29.9488 156.953 30.7492 156.515 31.4712C156.077 32.1933 155.501 32.8228 154.817 33.3239C154.134 33.8249 153.358 34.1877 152.533 34.3915C150.868 34.803 149.106 34.5419 147.635 33.6657C149.135 33.9964 150.704 33.7872 152.063 33.0756C153.422 32.3639 154.481 31.1962 155.05 29.7814C155.619 28.3667 155.662 26.7973 155.171 25.3541C154.68 23.9109 153.686 22.6881 152.368 21.9047C153.05 22.0544 153.703 22.3125 154.301 22.669Z" fill="#231F20"/>
<path opacity="0.2" d="M170.084 31.4529C167.8 41.3639 150.54 52.391 145.615 70.9819C144.631 70.0606 143.717 69.0684 142.881 68.0135C148.416 50.5385 164.601 39.9201 166.808 30.3443C168.783 21.7738 163.235 13.6287 155.275 10.1879C164.911 12.5888 172.32 21.7479 170.084 31.4529Z" fill="#231F20"/>
<path d="M91.9152 34.7117C87.9877 34.2726 84.0451 35.3978 80.9547 37.84C77.8643 40.2821 75.8792 43.841 75.4362 47.7337C74.5136 55.84 78.8223 73.4431 86.678 80.73C90.3768 66.7689 103.338 58.4879 105.053 51.0451C106.886 43.0922 100.094 35.6261 91.9152 34.7117Z" fill="#F2CB05"/>
<path d="M89.1988 52.7328C91.883 52.7328 94.059 50.5761 94.059 47.9156C94.059 45.2551 91.883 43.0983 89.1988 43.0983C86.5146 43.0983 84.3386 45.2551 84.3386 47.9156C84.3386 50.5761 86.5146 52.7328 89.1988 52.7328Z" fill="white"/>
<path d="M84.0886 87.6758C85.8467 87.6758 87.2719 86.2632 87.2719 84.5206C87.2719 82.7781 85.8467 81.3654 84.0886 81.3654C82.3305 81.3654 80.9053 82.7781 80.9053 84.5206C80.9053 86.2632 82.3305 87.6758 84.0886 87.6758Z" fill="#033E8C"/>
<path opacity="0.2" d="M93.2201 44.4643C93.7672 44.7901 94.2441 45.2195 94.6237 45.728C95.0034 46.2366 95.2782 46.8142 95.4326 47.4281C95.587 48.0419 95.6179 48.6798 95.5235 49.3055C95.4292 49.9311 95.2114 50.5322 94.8827 51.0744C94.554 51.6167 94.1207 52.0894 93.6077 52.4657C93.0946 52.842 92.5118 53.1144 91.8925 53.2674C91.2732 53.4204 90.6296 53.4511 89.9984 53.3576C89.3671 53.264 88.7607 53.0482 88.2136 52.7224C89.3401 52.9707 90.519 52.8136 91.5393 52.2792C92.5596 51.7448 93.3548 50.8679 93.7824 49.8054C94.21 48.743 94.2422 47.5645 93.8732 46.4807C93.5042 45.3969 92.7581 44.4786 91.7684 43.8903C92.2804 44.0027 92.7706 44.1966 93.2201 44.4643Z" fill="#231F20"/>
<path opacity="0.2" d="M105.072 51.0607C103.357 58.5035 90.3957 66.7845 86.6969 80.7456C85.9581 80.0537 85.2719 79.3086 84.644 78.5164C88.8005 65.3933 100.955 57.4193 102.612 50.2282C104.095 43.792 99.9293 37.6753 93.9515 35.0914C101.188 36.8943 106.752 43.7726 105.072 51.0607Z" fill="#231F20"/>
<path d="M244.077 209.219H238.741L236.202 188.818L244.078 188.818L244.077 209.219Z" fill="#A0616A"/>
<path d="M246.948 219.262H243.161L242.485 215.719L240.754 219.262H230.711C230.23 219.262 229.761 219.11 229.373 218.827C228.986 218.544 228.699 218.146 228.556 217.69C228.413 217.235 228.42 216.746 228.577 216.295C228.734 215.844 229.032 215.454 229.428 215.183L237.448 209.693V206.111L245.884 206.61L246.948 219.262Z" fill="#2F2E41"/>
<path d="M223.408 209.219H218.072L215.533 188.818L223.409 188.818L223.408 209.219Z" fill="#A0616A"/>
<path d="M226.279 219.262H222.492L221.816 215.719L220.085 219.262H210.042C209.561 219.262 209.092 219.11 208.704 218.827C208.317 218.544 208.03 218.146 207.887 217.69C207.744 217.235 207.751 216.746 207.908 216.295C208.065 215.844 208.363 215.454 208.76 215.183L216.779 209.693V206.111L225.215 206.61L226.279 219.262Z" fill="#2F2E41"/>
<path d="M203.135 155.355C204.156 156.874 215.265 198.61 215.265 198.61L225.116 199.724L223.947 189.223L222.16 170.639L219.392 158.235C219.392 158.235 229.165 136.19 229.783 134.434L230.222 133.174L233.275 160.639C233.638 161.62 233.796 162.663 233.74 163.706C233.648 165.421 235.384 191.232 235.384 191.232L236.219 200.488L244.658 201.65L248.083 185.634C250.942 180.432 249.303 161.945 248.134 160.224C246.964 158.503 247.429 146.519 247.429 146.519C248.922 145.998 257.826 115.905 253.372 116.083C253.658 114.479 253.883 113.047 253.883 113.047L246.152 106.867L226.806 101.882L221.925 99.5595C221.925 99.5595 213.208 115.537 213.295 116.331C213.415 117.337 213.182 118.354 212.636 119.211L203.834 148.407C203.834 148.407 202.103 153.822 203.135 155.355Z" fill="#2F2E41"/>
<path d="M251.739 50.8809L248.662 44.404L238.186 44.803L234.77 51.5412C234.77 51.5412 225.005 63.1013 224.689 66.8602C224.291 71.5878 227.595 94.7579 224.291 93.256C224.291 93.256 216.503 102.317 221.111 102.317C225.72 102.317 246.567 115.288 247.935 116.747C249.303 118.206 255.409 119.151 254.897 116.106C254.385 113.061 251.739 96.5914 251.739 96.5914L258.901 70.6947C260.963 65.1036 261.604 58.8322 256.945 55.0765L251.739 50.8809Z" fill="#CCCCCC"/>
<path d="M212.938 31.8177C211.537 31.2664 210.04 30.9941 208.532 31.0162C207.025 31.0384 205.537 31.3546 204.153 31.9468C202.769 32.539 201.516 33.3956 200.466 34.4677C199.416 35.5398 198.589 36.8064 198.033 38.1951C195.694 44.0357 195.306 57.9834 199.659 64.9738C205.256 55.3376 216.579 51.7795 219.372 46.5908C222.356 41.0466 218.831 34.1361 212.938 31.8177Z" fill="#F2CB05"/>
<path d="M208.226 44.7986C210.294 44.7986 211.97 43.1373 211.97 41.0879C211.97 39.0385 210.294 37.3771 208.226 37.3771C206.158 37.3771 204.482 39.0385 204.482 41.0879C204.482 43.1373 206.158 44.7986 208.226 44.7986Z" fill="white"/>
<path d="M196.962 69.703C198.316 69.703 199.414 68.6148 199.414 67.2725C199.414 65.9302 198.316 64.842 196.962 64.842C195.607 64.842 194.509 65.9302 194.509 67.2725C194.509 68.6148 195.607 69.703 196.962 69.703Z" fill="#033E8C"/>
<path opacity="0.2" d="M211.919 39.3283C212.605 40.039 212.978 40.9905 212.956 41.9738C212.935 42.957 212.52 43.8916 211.804 44.5721C211.087 45.2526 210.128 45.6234 209.136 45.603C208.144 45.5826 207.2 45.1727 206.513 44.4634C207.3 44.8737 208.208 44.9931 209.076 44.8003C209.943 44.6075 210.713 44.115 211.247 43.411C211.782 42.707 212.046 41.8374 211.993 40.9579C211.94 40.0784 211.572 39.2464 210.957 38.6107C211.314 38.7969 211.639 39.0392 211.919 39.3283Z" fill="#231F20"/>
<path opacity="0.2" d="M219.383 46.6062C216.59 51.7948 205.267 55.353 199.67 64.9892C199.262 64.3269 198.904 63.6355 198.599 62.9209C204.365 53.9993 215.026 50.5076 217.724 45.4945C220.14 41.0076 218.291 35.6263 214.374 32.508C219.385 35.298 222.118 41.5255 219.383 46.6062Z" fill="#231F20"/>
<path d="M195.856 66.4356C196.426 66.3192 197.015 66.328 197.582 66.4615C198.148 66.595 198.678 66.8499 199.134 67.2084C199.59 67.5668 199.961 68.0199 200.221 68.5359C200.481 69.0519 200.624 69.6182 200.64 70.1949L209.133 73.4263L208.411 79.0211L196.481 74.2907C195.502 74.2524 194.571 73.8594 193.865 73.1863C193.158 72.5131 192.726 71.6065 192.649 70.6382C192.572 69.67 192.856 68.7074 193.447 67.9328C194.038 67.1582 194.895 66.6255 195.856 66.4356Z" fill="#A0616A"/>
<path d="M255.202 54.9062C254.308 54.3651 253.315 54.0043 252.28 53.8445C251.244 53.6847 250.187 53.729 249.169 53.975C248.151 54.2209 247.193 54.6636 246.348 55.2777C245.503 55.8918 244.788 56.6651 244.246 57.5534L232.054 77.5075L204.491 71.0316L201.98 77.8648L237.278 94.4373L255.155 66.2146C257.832 62.4864 259.143 57.2905 255.202 54.9062Z" fill="#CCCCCC"/>
<path d="M255.657 30.4518C255.658 32.3751 255.183 34.269 254.272 35.9675C253.362 37.666 252.045 39.1171 250.437 40.1934C248.829 41.2696 246.979 41.9382 245.05 42.1404C243.12 42.3425 241.17 42.0721 239.37 41.3528C237.571 40.6336 235.977 39.4874 234.728 38.0151C233.48 36.5427 232.616 34.7891 232.211 32.9083C231.806 31.0274 231.873 29.0768 232.406 27.2276C232.939 25.3784 233.922 23.6872 235.269 22.3025L235.326 22.2462C235.42 22.1475 235.515 22.0488 235.615 21.9547C235.615 21.9548 235.616 21.9546 235.617 21.9544C235.617 21.9542 235.618 21.9538 235.618 21.9534C235.619 21.953 235.619 21.9524 235.619 21.9519C235.619 21.9513 235.62 21.9507 235.62 21.95C235.743 21.8373 235.866 21.7245 235.994 21.6164C237.707 20.1279 239.816 19.1603 242.07 18.8294C244.323 18.4985 246.625 18.8183 248.7 19.7506C250.775 20.6828 252.534 22.188 253.768 24.0859C255.002 25.9838 255.658 28.194 255.657 30.4518Z" fill="#2F2E41"/>
<path d="M240.883 43.0225C246.373 43.0225 250.823 38.6115 250.823 33.1703C250.823 27.7291 246.373 23.3181 240.883 23.3181C235.393 23.3181 230.943 27.7291 230.943 33.1703C230.943 38.6115 235.393 43.0225 240.883 43.0225Z" fill="#9E616A"/>
<path d="M251.439 35.98L249.792 35.6916C248.871 35.5259 248.024 35.0855 247.363 34.4296C246.702 33.7736 246.259 32.9332 246.093 32.0209L244.486 34.6904L244.416 34.7134C240.587 35.9735 236.603 35.5966 232.24 33.5629C230.992 32.9763 229.782 32.3149 228.615 31.5823L228.529 31.529L228.522 31.4288C228.3 28.2237 229.025 25.5462 230.566 23.8893C231.157 23.266 231.875 22.7735 232.672 22.4443C233.469 22.115 234.327 21.9564 235.19 21.9787C235.252 21.9629 235.308 21.932 235.354 21.8889C235.376 21.8728 235.399 21.8568 235.421 21.8416V21.825L235.535 21.7718C235.78 21.6575 236.03 21.548 236.28 21.448C238.247 20.6933 240.389 20.504 242.459 20.9018C244.53 21.2996 246.445 22.2684 247.985 23.6968C251.047 26.594 252.451 31.4561 251.48 35.7959L251.439 35.98Z" fill="#2F2E41"/>
<path d="M272.404 44.3741C269.022 42.6437 273.372 36.363 272.498 32.6909C271.624 29.0188 265.328 27.8378 264.927 24.0858C264.526 20.3339 263.583 16.4641 261.085 13.6171C259.489 11.7979 257.137 10.4549 254.716 10.6827C253.896 10.7598 253.103 11.011 252.391 11.4193C251.678 11.8275 251.063 12.3831 250.587 13.0483C250.11 13.7135 249.784 14.4726 249.63 15.274C249.477 16.0754 249.499 16.9002 249.696 17.6922C249.007 16.7239 247.222 16.9338 246.781 18.0352C246.388 19.0143 247.256 20.2003 248.276 20.2869C249.612 21.9219 251.142 23.657 253.234 23.9869C253.568 24.0627 253.914 24.0625 254.247 23.9863C254.581 23.91 254.892 23.7597 255.158 23.5467C255.651 23.0781 255.689 22.1412 255.105 21.791C257.735 22.8264 259.276 25.6447 259.667 28.4225C260.057 31.2004 259.517 34.0111 259.161 36.7935C258.806 39.5759 258.652 42.5029 259.753 45.0867C261.053 48.1395 264.048 50.3275 267.315 51.0292C270.583 51.7308 274.062 51.0451 277.02 49.5C279.978 47.9548 282.444 45.596 284.459 42.9515C280.988 45.3942 276.187 46.3093 272.404 44.3741Z" fill="#2F2E41"/>
<path d="M251.016 35.7061C251.016 35.7061 248.071 24.8122 235.449 22.2978C235.435 22.2932 235.387 22.2744 235.326 22.2462C235.288 22.2227 235.24 22.1992 235.193 22.1757C235.335 22.0958 235.473 22.0253 235.615 21.9548L235.617 21.9544L235.618 21.9534L235.619 21.9519L235.62 21.9501C235.743 21.8373 235.866 21.7245 235.994 21.6164L236.355 21.6305C236.355 21.6305 249.019 19.6426 251.016 35.7061Z" fill="#FD6584"/>
<path opacity="0.2" d="M244.423 70.6618L237.294 78.8481L225.515 75.4004L238.356 81.2658L244.423 70.6618Z" fill="#212529"/>
<path d="M287.212 219.879L177.607 220C177.482 220 177.362 219.95 177.274 219.862C177.185 219.774 177.135 219.655 177.135 219.531C177.135 219.407 177.185 219.288 177.274 219.2C177.362 219.112 177.482 219.062 177.607 219.062L287.212 218.941C287.338 218.941 287.458 218.99 287.547 219.078C287.635 219.166 287.685 219.285 287.685 219.41C287.685 219.534 287.635 219.654 287.547 219.742C287.458 219.829 287.338 219.879 287.212 219.879Z" fill="#CACACA"/>
<path d="M292.023 146.979C286.891 146.979 281.266 146.787 275.148 146.403C243.503 144.411 202.513 137.486 159.73 126.904C116.946 116.322 77.4792 103.347 48.6003 90.3698C34.5325 84.0479 23.7356 78.0637 16.5098 72.5832C8.85946 66.7812 5.51312 61.7239 6.56329 57.5522C8.60951 49.4251 26.7278 47.647 41.5668 47.5866L41.5719 48.7685C21.1939 48.8515 9.17195 52.0726 7.72042 57.8385C5.87141 65.1821 20.9511 76.6468 49.0927 89.2934C77.9082 102.242 117.302 115.193 160.018 125.758C202.734 136.322 243.648 143.235 275.223 145.223C306.059 147.164 324.806 144.066 326.655 136.722C328.19 130.625 318.07 121.643 298.16 111.43L298.708 110.38C313.175 117.801 329.968 128.444 327.812 137.008C326.762 141.18 321.41 144.086 311.907 145.645C306.489 146.534 299.835 146.979 292.023 146.979Z" fill="#033E8C"/>
</g>
<defs>
<clipPath id="clip0_2_2404">
<rect width="328" height="220" fill="white"/>
</clipPath>
</defs>
</svg>
